<svg width="195" height="60" viewBox="0 0 195 60" fill="none" xmlns="http://www.w3.org/2000/svg">
<circle cx="30" cy="30" r="27" stroke="#FF855C" stroke-width="6"/>
<circle cx="30" cy="30" r="12" stroke="#FF855C" stroke-width="6"/>
<path d="M96.1035 35.3203H85.3809L82.9727 42H79.4922L89.2656 16.4062H92.2188L102.01 42H98.5469L96.1035 35.3203ZM86.4004 32.543H95.1016L90.7422 20.5723L86.4004 32.543ZM108.479 42H105.227V15H108.479V42ZM113.014 35.127C113.014 33.8965 113.354 32.7656 114.033 31.7344C114.725 30.7031 116.037 29.502 117.971 28.1309C116.834 26.748 116.072 25.6348 115.686 24.791C115.299 23.9473 115.105 23.1094 115.105 22.2773C115.105 20.332 115.68 18.8086 116.828 17.707C117.977 16.6055 119.535 16.0547 121.504 16.0547C123.262 16.0547 124.715 16.5703 125.863 17.6016C127.012 18.6211 127.586 19.9102 127.586 21.4688C127.586 22.5 127.322 23.4551 126.795 24.334C126.279 25.2012 125.371 26.1152 124.07 27.0762L122.189 28.4648L127.885 35.2676C128.682 33.7441 129.08 32.0508 129.08 30.1875H132.016C132.016 33.1758 131.295 35.6543 129.854 37.623L133.51 42H129.607L127.902 39.9785C127.035 40.752 126.016 41.3438 124.844 41.7539C123.684 42.1523 122.5 42.3516 121.293 42.3516C118.797 42.3516 116.793 41.6895 115.281 40.3652C113.77 39.041 113.014 37.2949 113.014 35.127ZM121.293 39.6973C123.016 39.6973 124.592 39.041 126.021 37.7285L119.781 30.2578L119.201 30.6797C117.244 32.1211 116.266 33.6035 116.266 35.127C116.266 36.5098 116.711 37.6172 117.602 38.4492C118.504 39.2812 119.734 39.6973 121.293 39.6973ZM118.357 22.1719C118.357 23.2969 119.049 24.7031 120.432 26.3906L122.506 24.9316C123.303 24.3691 123.848 23.8359 124.141 23.332C124.434 22.8164 124.58 22.1953 124.58 21.4688C124.58 20.6836 124.287 20.0332 123.701 19.5176C123.115 18.9902 122.377 18.7266 121.486 18.7266C120.525 18.7266 119.764 19.0547 119.201 19.7109C118.639 20.3555 118.357 21.1758 118.357 22.1719ZM136.604 42V16.4062H144.971C147.748 16.4062 149.834 16.9805 151.229 18.1289C152.635 19.2773 153.338 20.9766 153.338 23.2266C153.338 24.4219 152.998 25.4824 152.318 26.4082C151.639 27.3223 150.713 28.0312 149.541 28.5352C150.924 28.9219 152.014 29.6602 152.811 30.75C153.619 31.8281 154.023 33.1172 154.023 34.6172C154.023 36.9141 153.279 38.7188 151.791 40.0312C150.303 41.3438 148.199 42 145.48 42H136.604ZM139.979 30.0293V39.2402H145.551C147.121 39.2402 148.357 38.8359 149.26 38.0273C150.174 37.207 150.631 36.082 150.631 34.6523C150.631 31.5703 148.955 30.0293 145.604 30.0293H139.979ZM139.979 27.3223H145.076C146.553 27.3223 147.73 26.9531 148.609 26.2148C149.5 25.4766 149.945 24.4746 149.945 23.209C149.945 21.8027 149.535 20.7832 148.715 20.1504C147.895 19.5059 146.646 19.1836 144.971 19.1836H139.979V27.3223ZM166.416 42.3516C163.838 42.3516 161.74 41.5078 160.123 39.8203C158.506 38.1211 157.697 35.8535 157.697 33.0176V32.4199C157.697 30.5332 158.055 28.8516 158.77 27.375C159.496 25.8867 160.504 24.7266 161.793 23.8945C163.094 23.0508 164.5 22.6289 166.012 22.6289C168.484 22.6289 170.406 23.4434 171.777 25.0723C173.148 26.7012 173.834 29.0332 173.834 32.0684V33.4219H160.949C160.996 35.2969 161.541 36.8145 162.584 37.9746C163.639 39.123 164.975 39.6973 166.592 39.6973C167.74 39.6973 168.713 39.4629 169.51 38.9941C170.307 38.5254 171.004 37.9043 171.602 37.1309L173.588 38.6777C171.994 41.127 169.604 42.3516 166.416 42.3516ZM166.012 25.3008C164.699 25.3008 163.598 25.7812 162.707 26.7422C161.816 27.6914 161.266 29.0273 161.055 30.75H170.582V30.5039C170.488 28.8516 170.043 27.5742 169.246 26.6719C168.449 25.7578 167.371 25.3008 166.012 25.3008ZM185.506 42.3516C182.928 42.3516 180.83 41.5078 179.213 39.8203C177.596 38.1211 176.787 35.8535 176.787 33.0176V32.4199C176.787 30.5332 177.145 28.8516 177.859 27.375C178.586 25.8867 179.594 24.7266 180.883 23.8945C182.184 23.0508 183.59 22.6289 185.102 22.6289C187.574 22.6289 189.496 23.4434 190.867 25.0723C192.238 26.7012 192.924 29.0332 192.924 32.0684V33.4219H180.039C180.086 35.2969 180.631 36.8145 181.674 37.9746C182.729 39.123 184.064 39.6973 185.682 39.6973C186.83 39.6973 187.803 39.4629 188.6 38.9941C189.396 38.5254 190.094 37.9043 190.691 37.1309L192.678 38.6777C191.084 41.127 188.693 42.3516 185.506 42.3516ZM185.102 25.3008C183.789 25.3008 182.688 25.7812 181.797 26.7422C180.906 27.6914 180.355 29.0273 180.145 30.75H189.672V30.5039C189.578 28.8516 189.133 27.5742 188.336 26.6719C187.539 25.7578 186.461 25.3008 185.102 25.3008Z" fill="white"/>
</svg>
